/* XPM */
static char*kmix_mini[]={
"16 16 10 1",
"f c #a0a0a0",
"a c #00ffff",
"e c #000000",
"b c #303030",
"h c #008080",
". c None",
"# c #585858",
"g c #dcdcdc",
"d c #ffffff",
"c c #00c0c0",
".......##....#..",
"......#abb...#..",
".....#cb.d#..#..",
"....#ae..d#..#.#",
"...#acb.dd#..#.#",
".##accb.dd#.f#.#",
"#aacccbbdd#.##.#",
"#cacccbgbd#.#f##",
"#cacccbfbd#.#.#f",
"bhhcccbbdd#.#.#.",
".bbhccb.dd#.#.#.",
"...bhcb.dd#.#.#.",
"....bhb..d#.#...",
".....bhb.d#.#...",
"......bhbe......",
".......bb......."};
