/* XPM */
static char * kmixdocked_xpm[] = {
"20 20 5 1",
" 	c None",
".	c #000000000000",
"X	c #FFFF00000000",
"o	c #AEBAAEBAAEBA",
"O	c #CF3CCF3CCF3C",
"                    ",
"       ..           ",
"      ...     X     ",
"     ..o.  X   X    ",
"    ..oo.   X   X   ",
" ....ooo.    X  X   ",
" ....ooo. X  X   X  ",
" .OO.ooo.  X  X  X  ",
" .OO.ooo.  X  X  X  ",
" .OO.ooo.  X  X  X  ",
" .OO.ooo.  X  X  X  ",
" .OO.ooo.  X  X  X  ",
" ....ooo. X  X   X  ",
" ....ooo.    X  X   ",
"    ..oo.   X   X   ",
"     ..o.  X   X    ",
"      ...     X     ",
"       ..           ",
"                    ",
"                    "};
