/* XPM */
static char * mix_ext_xpm[] = {
"20 20 4 1",
" 	c none",
".	c #000000000000",
"X	c #CE72CE72CE72",
"o	c #FFFF00000000",
"                 .X ",
"             .. .X. ",
"            ....X.  ",
"           ......   ",
"          ........  ",
"         .........  ",
"        .........   ",
"       .........    ",
"        .......     ",
"       .X.....      ",
"      .XXX...       ",
"     .XXX. .        ",
"    .XXX.           ",
"   .XXX.            ",
"  .oXX.             ",
" .XXo.              ",
" .XX.               ",
" ...                ",
"                    ",
"                    "};
