/* XPM */
/* Drawn for the K Desktop Environment */
/* See http://www.kde.org */
static char*kmix[]={
"16 16 11 1",
"e c #ffffff",
"# c #000000",
"b c #c0c0c0",
"a c #808080",
"d c #a0a0a4",
"c c #585858",
"f c #808080",
"g c #000000",
"h c #ffffc0",
"i c #00c0c0",
". c None",
"......#.........",
"....##a##.......",
"..##bcdab##.....",
"##bbbbbaecb##...",
"#eebbaebdaeaa##.",
"#bbeebcdcbcdbbd#",
"#bbbbebbaebbddd#",
".##bfgbebdddddd#",
"...##bfbdhhdd##.",
"..#igefdhfhhh#..",
".#bigghhhfhfhh#.",
".g#igehffcfcfh#.",
"...#ge##hfhfh#..",
"....#b#.#h#h#...",
".....g...#.#....",
"................"};

