/* XPM */
static char * mixer_mini_xpm[] = {
"14 14 4 1",
" 	c none",
".	c #000000000000",
"X	c #CE72CE72CE72",
"o	c #FFFF00000000",
"            .X",
"        .. .X.",
"       ....X. ",
"      ......  ",
"     ........ ",
"    ......... ",
"    ........  ",
"    .......   ",
"   .XX....    ",
"  .XXX...     ",
" .oXX.        ",
".XXo.         ",
".XX.          ",
"...           "};
