/* XPM */
static char * kmix_xpm[] = {
"32 32 182 2",
"  	c None",
". 	c #000000",
"+ 	c #C5C5C5",
"@ 	c #C4C4C4",
"# 	c #D1D1D1",
"$ 	c #FFFFFF",
"% 	c #A0A0A4",
"& 	c #585858",
"* 	c #C3C3C3",
"= 	c #9F9FA2",
"- 	c #C0C0C0",
"; 	c #CFCFCF",
"> 	c #303030",
", 	c #CBCBCB",
"' 	c #CACACA",
") 	c #C9C9C9",
"! 	c #3F3F3F",
"~ 	c #6E6E6E",
"{ 	c #CCCCCC",
"] 	c #959598",
"^ 	c #C2C2C2",
"/ 	c #BCBCBC",
"( 	c #BBBBBB",
"_ 	c #C6C6C6",
": 	c #BDBDBD",
"< 	c #BABABA",
"[ 	c #B9B9B9",
"} 	c #C8C8C8",
"| 	c #C7C7C7",
"1 	c #C1C1C1",
"2 	c #BFBFBF",
"3 	c #BEBEBE",
"4 	c #B8B8B8",
"5 	c #B7B7B7",
"6 	c #B4B4B4",
"7 	c #E4E4E5",
"8 	c #B6B6B6",
"9 	c #B3B3B3",
"0 	c #B0B0B0",
"a 	c #ADADAD",
"b 	c #636363",
"c 	c #5A5A5A",
"d 	c #B1B1B1",
"e 	c #AFAFAF",
"f 	c #ACACAC",
"g 	c #A9A9A9",
"h 	c #A6A6A6",
"i 	c #747474",
"j 	c #6B6B6B",
"k 	c #5B5B5B",
"l 	c #AAAAAA",
"m 	c #A7A7A7",
"n 	c #A5A5A5",
"o 	c #A2A2A2",
"p 	c #9F9F9F",
"q 	c #7F7F7F",
"r 	c #7B7B7B",
"s 	c #6C6C6C",
"t 	c #646464",
"u 	c #5D5D5D",
"v 	c #A3A3A3",
"w 	c #A0A0A0",
"x 	c #7D7D7D",
"y 	c #757575",
"z 	c #666666",
"A 	c #5E5E5E",
"B 	c #26F2FC",
"C 	c #466A74",
"D 	c #626264",
"E 	c #3C3C3C",
"F 	c #909090",
"G 	c #FFFFC0",
"H 	c #777777",
"I 	c #6F6F6F",
"J 	c #676767",
"K 	c #606060",
"L 	c #457A81",
"M 	c #666264",
"N 	c #777672",
"O 	c #8F8F8F",
"P 	c #8C8C8C",
"Q 	c #898989",
"R 	c #787878",
"S 	c #717171",
"T 	c #070F0F",
"U 	c #0CDAE4",
"V 	c #666763",
"W 	c #767775",
"X 	c #86867F",
"Y 	c #8B8B8B",
"Z 	c #888888",
"` 	c #878787",
" .	c #0AE7F0",
"..	c #16A9BF",
"+.	c #5A5A5C",
"@.	c #6F6F6C",
"#.	c #81817E",
"$.	c #8E8E8F",
"%.	c #808080",
"&.	c #05D1DD",
"*.	c #00D2DC",
"=.	c #137487",
"-.	c #4E4E4C",
";.	c #73736C",
">.	c #8E8E8D",
",.	c #9D9DA1",
"'.	c #02191A",
").	c #01C3CB",
"!.	c #01D7DD",
"~.	c #03CBD3",
"{.	c #01C9D4",
"].	c #01C5D2",
"^.	c #83BABB",
"/.	c #BABABC",
"(.	c #727274",
"_.	c #999A98",
":.	c #B2B2A8",
"<.	c #021719",
"[.	c #01A0AB",
"}.	c #019DA3",
"|.	c #01A5AE",
"1.	c #01B0C0",
"2.	c #0193A1",
"3.	c #839D9D",
"4.	c #ECE9E8",
"5.	c #D1D1D3",
"6.	c #BEC0B9",
"7.	c #E8E8BD",
"8.	c #021416",
"9.	c #018B97",
"0.	c #01858B",
"a.	c #01838A",
"b.	c #018794",
"c.	c #01828E",
"d.	c #809FA4",
"e.	c #C2BEBC",
"f.	c #A1A1A2",
"g.	c #F2F1D1",
"h.	c #F7F7CA",
"i.	c #020F10",
"j.	c #02565C",
"k.	c #026872",
"l.	c #016C76",
"m.	c #01747F",
"n.	c #018191",
"o.	c #66969C",
"p.	c #565654",
"q.	c #FAFAF7",
"r.	c #D7D7DA",
"s.	c #023A3C",
"t.	c #064E54",
"u.	c #025E65",
"v.	c #01686D",
"w.	c #017B87",
"x.	c #407073",
"y.	c #F2F2F1",
"z.	c #FAFAF8",
"A.	c #F5F5F6",
"B.	c #8C8B8A",
"C.	c #02636D",
"D.	c #016C78",
"E.	c #5F8A95",
"F.	c #CAC7C8",
"G.	c #D9D9D4",
"H.	c #E8E8E7",
"I.	c #F9F9F9",
"J.	c #016870",
"K.	c #457985",
"L.	c #CDC4C3",
"M.	c #CACACE",
"N.	c #DCDCDD",
"O.	c #E8E8E8",
"P.	c #045B6A",
"Q.	c #D9CAC8",
"R.	c #C9C8CB",
"S.	c #D8D8DB",
"T.	c #A2AEAC",
"U.	c #A0B9B9",
"V.	c #D5D1D1",
"W.	c #DADADC",
"X.	c #CAC6CC",
"Y.	c #222222",
"                                                                ",
"                          . .                                   ",
"                    . . . + @ . .                               ",
"                  . # $ % & @ * . . .                           ",
"              . . & = - $ ; > & # $ % . .                       ",
"          . . , ' ) ! > ; ~ > & = - $ ; > . .                   ",
"      . . { { , ' ] ! $ > > * ^ ! > ; ~ > / ( . .               ",
"  . . { { { { ] ! $ $ _ + @ * ] ! $ > > : / ( < [ . .           ",
". $ { { { { ! $ $ } | _ ] & & ! 1 - 2 3 & & ! < [ 4 5 . .       ",
". 4 $ $ { { , ' ) } ] ! & # $ % ! - ] & # $ % ! ] ! 5 5 5 . .   ",
". 4 5 6 $ $ , ' ) ! $ $ & = - $ ; > $ & = - $ ; > $ $ 5 5 5 7 . ",
". 4 8 9 0 a $ $ ) } | _ + ! > ; ~ > % % ! > ; ~ > 5 5 5 7 b c . ",
". 5 6 d e f g h $ $ | _ + ! $ > > % ] ! $ $ > > 4 5 7 i j b k . ",
". 8 9 0 a l m n o p $ $ + @ * ^ 1 ! $ $ / ( < [ 7 q r i s t u . ",
"  . . e f g h v w ! ! ! $ $ * ^ - 2 3 : / ( 7 q q q x y ~ z A . ",
"      . . m n o ! B C D E F $ $ - 2 3 : G q q q & q q H I J K . ",
"          . . ! B L M N ! O P Q $ $ 7 & G & q q G q q R S . .   ",
"            T B U D V W X ! Y Z & ` & G G G & & G & q . .       ",
"          . B  ...+.@.#.$.! & ` G & G G %.G G G G G .           ",
"      . . B &.*.=.-.;.>.,.! G & G G G G %.G G G %.G .           ",
"    '.).!.~.{.].^./.(._.F :.G G G G %.G & G %.G %.G G .         ",
"    <.[.}.|.1.2.3.4.5.6.7.7.& G & G & G & G & G & G & G . .     ",
"    8.9.0.a.b.c.d.e.f.g.h.g.G & G & G & G & G & G & G & G G . . ",
"    i.j.k.l.m.n.o.p.D q.r.g.G %.G %.G & G %.G & G %.G G . .     ",
"    . s.t.u.v.w.x.D y.z.A.B.. G G %.G & G %.G & G G G .         ",
"      . . j.C.D.E.F.G.H.I..   . . G G %.G G G %.G G .           ",
"          . j.J.K.L.M.N.O..       . G %.G G G %.G .             ",
"            . j.P.Q.R.S.T..         . G . . G G .               ",
"              . j.U.V.W..             .     . G .               ",
"                . j.X.X.Y.            .       .                 ",
"                  . . .                       .                 ",
"                                                                "};
