/* XPM */
static char*kmix_mini[]={
"16 16 11 1",
"g c #a0a0a4",
"d c #c0c0c0",
"a c #00ffff",
"f c #000000",
". c None",
"b c #303030",
"i c #008080",
"# c #585858",
"h c #dcdcdc",
"e c #ffffff",
"c c #00c0c0",
".......##....#..",
"......#abb...#..",
".....#cbde#..#..",
"....#afdde#..#.#",
"...#acbdee#..#.#",
".##accbdee#.g#.#",
"#aacccbbee#.##.#",
"#cacccbhbe#.#g##",
"#cacccbgbe#.#.#g",
"biicccbbee#.#.#.",
".bbiccbdee#.#.#.",
"...bicbdee#.#.#.",
"....bibdde#.#...",
".....bibde#.#...",
"......bibf......",
".......bb......."};
