/* XPM */
static char*kmixdocked[]={
"22 22 10 1",
"g c #808080",
"a c #c3c3c3",
"e c #00ffff",
"# c #000000",
"d c #303030",
"h c #008080",
". c None",
"c c #585858",
"b c #ffffff",
"f c #00c0c0",
"..........###.........",
".........#aab#....c...",
"........#dabb#a...c...",
".......#edabb#....c...",
"......#edaabbb#...c..c",
".....#efdaabbb#...c..c",
"....#efedaabbb#...c..c",
"..##efefdaabbb#...c..c",
".#eefeffdddbbb#..gc..c",
"#eeeefffdbbdbb#..cc.gc",
"#feeffffdbbdbb#..cg.cg",
"#feeffffdaadbb#..c..c.",
"#heehfffdaadbb#..c..c.",
".#hhfhffdddbbb#..c..c.",
"..##hfhfdaabbb#..c..c.",
"....#hfhdaabbb#..c..c.",
".....#hfdaabbb#..c..c.",
"......#hdaabbb#..c....",
".......#hdabb#...c....",
"........##abb#a..c....",
".........#aab#........",
"..........###........."};
