/* XPM */
static char*kmix[]={
"32 32 13 1",
"e c #808080",
"f c #a0a0a0",
"g c #00ffff",
"# c #000000",
"d c #303030",
"h c #ffffc0",
"k c #008080",
". c None",
"b c #585858",
"c c #a0a0a4",
"j c #dcdcdc",
"a c #ffffff",
"i c #00c0c0",
"................................",
".............##.................",
"..........###a.##...............",
".........#aa.b..b##.............",
".......##b..acdbaa.##...........",
".....##aa.ddccdb..acd##.........",
"...##aa...eadd..ddccd..##.......",
".##aa...eaa...ceaadd.....##.....",
"#aa...eaa...cbbb....bbb....##...",
"#.aa......cebaa.bcebaa.bce...##.",
"#...aa...eaab..acdab..acdaa...f#",
"#.....aa.....ddccd..ddccd...fee#",
"#.......aa...eadd.ceaadd..feeee#",
"#.........aa....ceaa....feeeeee#",
".##.......bbaa........feeeeeeee#",
"...##....bgdd.aa....heeeeeeeeee#",
".....##.bid.ab..aafeheeeheeee##.",
".......#g#..ab..e.ehhheehee##...",
"......#gid.aabe.hehhehhhhh#.....",
"....##giid.aadhehhhhehhheh#.....",
"...#ggiiiddaadhhhhehbhehehh#....",
"...#igiiidjdhhbhbhbhbhbhbhbh##..",
"...#igiiidfdhbhbhbhbhbhbhbhbhh##",
"...dkkiiiddaahhehehbhehbhehh##..",
"....ddkiid.aa##hhehbhehbhhh#....",
"......dkid.aa#.##hhehhhehh#.....",
".......dkd..a#...#hehhheh#......",
"........dkd.a#....#h##hh#.......",
".........dkd#......#..#h#.......",
"..........dd.......#...#........",
".......................#........",
"................................"};
