/* XPM */
static char*kmixdocked[]={
"22 22 10 1",
"g c #808080",
"c c #c3c3c3",
"e c #00ffff",
"# c #000000",
". c None",
"b c #303030",
"h c #008080",
"a c #585858",
"d c #ffffff",
"f c #00c0c0",
"......................",
"......................",
"............##....a...",
"..........#bcd#...a..a",
".........#ebcd#...a..a",
"........#ebccdd#..a..a",
".......#efbccdd#..a..a",
"......#efebccdd#..a..a",
"....##efefbccdd#..a..a",
"...#eefeffbbddd#..a..a",
"..#eeeefffbd#dd#..a.ga",
"..#feeffffbd#dd#.ga.ag",
"..#feeffffbc#dd#.ag.a.",
"..#heehfffbc#dd#.a..a.",
"...#hhfhffbbddd#.a..a.",
"....##hfhfbccdd#.a..a.",
"......#hfhbccdd#.a..a.",
".......#hfbccdd#.a..a.",
"........#hbccdd#.a..a.",
".........#hbcd#..a....",
"..........##cd#..a....",
"............##........"};
