/* XPM */
static char*kmix[]={
"32 32 14 1",
"f c #808080",
"g c #a0a0a0",
"b c #c3c3c3",
"h c #00ffff",
"# c #000000",
"e c #303030",
"i c #ffffc0",
"l c #008080",
". c None",
"d c #585858",
"c c #a0a0a4",
"k c #dcdcdc",
"a c #ffffff",
"j c #00c0c0",
"................................",
".............##.................",
"..........###ab##...............",
".........#aacdbbd##.............",
".......##dcbacedaac##...........",
".....##aabeeccedcbace##.........",
"...##aabbcfaeebbeeccebb##.......",
".##aabbcfaabbbbfaaeebbbbb##.....",
"#aabbbfaabbbcdddbbbbdddbbbb##...",
"#baabbbbbbcfdaacdbfdaacdcfbbb##.",
"#bbbaabbbfaadcbaceadcbaceaabbbf#",
"#bbbbbaabbbbbeeccecceeccebbbgdc#",
"#bbbbbbbaabbbfaeeccfaaeebbgfdfd#",
"#bbbbbbbbbaabbbbbfaabbbbgffdfdc#",
".##bbbbbbbddaabbbbbbbbgfffffdfd#",
"...##bbbbdheecaabbbbifffdffdfdc#",
".....##bdje.aeccaagdidffifffd##.",
".......#h#..aeccdcdiiiddidf##...",
"......#hje.aaedcidiifiiiii#.....",
"....##hjje.aaeidiiiifiiifi#.....",
"...#hhjjjeeaaeiiiifidififii#....",
"...#jhjjjekeiidididididididi##..",
"...#jhjjjegeididididididididii##",
"...elljjjeeaaiififidifidifii##..",
"....eeljje.aa##iifidifidiii#....",
"......elje.aa#.##iifiiifii#.....",
".......ele..a#...#ifiiifi#......",
"........ele.a#....#i##ii#.......",
".........ele#......#..#i#.......",
"..........ee.......#...#........",
".......................#........",
"................................"};
