/* XPM */
static char * kmix_xpm[] = {
"32 32 4 1",
" 	c none",
".	c #000000000000",
"X	c #CE72CE72CE72",
"o	c #FFFF00000000",
"                                ",
"                           .    ",
"                          .XX   ",
"                         .XXX.  ",
"                    ..  .XXX.   ",
"                   .....XXX.    ",
"                  .......X.     ",
"                 .........      ",
"                ...........     ",
"               .............    ",
"              .............     ",
"             .............      ",
"            .............       ",
"           .............        ",
"           ............         ",
"            ..........          ",
"            .........           ",
"           .XX......            ",
"          .XXXX....             ",
"         .XXXX. ..              ",
"        .XXXX.                  ",
"       .XXXX.                   ",
"      .oXXX.                    ",
"     .XooX.                     ",
"    .XXXo.                      ",
"    .XXX.                       ",
"    .XX.                        ",
"    ...                         ",
"                                ",
"                                ",
"                                ",
"                                "};
