/* XPM */
static char * large_kmix_xpm[] = {
"48 48 221 2",
"  	c None",
". 	c #000000",
"+ 	c #0B0B0B",
"@ 	c #090909",
"# 	c #C0C0C0",
"$ 	c #B8B8B8",
"% 	c #A4A4A4",
"& 	c #151515",
"* 	c #6E6E6F",
"= 	c #585858",
"- 	c #3F3F3F",
"; 	c #FFFFFF",
"> 	c #C9C9C9",
", 	c #CFCFCF",
"' 	c #98989B",
") 	c #D0D0D0",
"! 	c #CBCBCB",
"~ 	c #CACACA",
"{ 	c #BABABA",
"] 	c #E4E4E5",
"^ 	c #C4C4C4",
"/ 	c #BEBEBE",
"( 	c #BDBDBD",
"_ 	c #CCCCCC",
": 	c #7E7E80",
"< 	c #9F9FA2",
"[ 	c #B9B9B9",
"} 	c #E5E5E6",
"| 	c #939397",
"1 	c #949498",
"2 	c #BCBCBC",
"3 	c #C8C8C8",
"4 	c #959598",
"5 	c #A4A4A7",
"6 	c #C3C3C3",
"7 	c #949497",
"8 	c #BBBBBB",
"9 	c #BFBFBF",
"0 	c #C7C7C7",
"a 	c #C6C6C6",
"b 	c #C5C5C5",
"c 	c #C2C2C2",
"d 	c #C1C1C1",
"e 	c #B7B7B7",
"f 	c #97979A",
"g 	c #DDDDDD",
"h 	c #B5B5B5",
"i 	c #B3B3B3",
"j 	c #A0A0A3",
"k 	c #B2B2B2",
"l 	c #B0B0B0",
"m 	c #AEAEAE",
"n 	c #A5A5A8",
"o 	c #575757",
"p 	c #B6B6B6",
"q 	c #B4B4B4",
"r 	c #AFAFAF",
"s 	c #ADADAD",
"t 	c #ABABAB",
"u 	c #A9A9A9",
"v 	c #A8A8A8",
"w 	c #636363",
"x 	c #5D5D5D",
"y 	c #B1B1B1",
"z 	c #ACACAC",
"A 	c #AAAAAA",
"B 	c #A6A6A6",
"C 	c #A3A3A3",
"D 	c #747474",
"E 	c #6E6E6E",
"F 	c #696969",
"G 	c #A7A7A7",
"H 	c #A5A5A5",
"I 	c #A1A1A1",
"J 	c #A0A0A0",
"K 	c #9E9E9E",
"L 	c #9C9C9C",
"M 	c #7F7F7F",
"N 	c #7A7A7A",
"O 	c #A2A2A2",
"P 	c #999999",
"Q 	c #979797",
"R 	c #26F2FC",
"S 	c #6A6A64",
"T 	c #666264",
"U 	c #969696",
"V 	c #949494",
"W 	c #929292",
"X 	c #919191",
"Y 	c #666664",
"Z 	c #727274",
"` 	c #959595",
" .	c #939393",
"..	c #8F8F8F",
"+.	c #8E8E8E",
"@.	c #8C8C8C",
"#.	c #FFFFC0",
"$.	c #466A74",
"%.	c #5E5E5C",
"&.	c #767674",
"*.	c #909090",
"=.	c #8A8A8A",
"-.	c #898989",
";.	c #878787",
">.	c #020204",
",.	c #0EC2CC",
"'.	c #626264",
").	c #6A6E6C",
"!.	c #82827C",
"~.	c #8D8D8D",
"{.	c #1ADEEC",
"].	c #02CEDC",
"^.	c #1E9AAC",
"/.	c #5A5A5C",
"(.	c #6E6E6C",
"_.	c #7E7E7C",
":.	c #868684",
"<.	c #8B8B8B",
"[.	c #868686",
"}.	c #808080",
"|.	c #12E6EC",
"1.	c #02BAC4",
"2.	c #02DAEC",
"3.	c #26869C",
"4.	c #8E8E94",
"5.	c #767A84",
"6.	c #465254",
"7.	c #FEFEBF",
"8.	c #1AE6F4",
"9.	c #02BECC",
"0.	c #02C2CC",
"a.	c #06CAD4",
"b.	c #265664",
"c.	c #4E4E4C",
"d.	c #929294",
"e.	c #9A9A9C",
"f.	c #A6A6A4",
"g.	c #F4F4B9",
"h.	c #029AA4",
"i.	c #02B2BC",
"j.	c #9EBEBC",
"k.	c #BABABC",
"l.	c #8A8A84",
"m.	c #9E9E9C",
"n.	c #939376",
"o.	c #02AAB4",
"p.	c #02B6C4",
"q.	c #02A6B4",
"r.	c #02929C",
"s.	c #A2AEAC",
"t.	c #F2F2F4",
"u.	c #D2D2D4",
"v.	c #AEB2B4",
"w.	c #E8E6BE",
"x.	c #B7B78F",
"y.	c #027684",
"z.	c #028284",
"A.	c #029294",
"B.	c #029AAC",
"C.	c #0296A4",
"D.	c #027E8C",
"E.	c #929E9C",
"F.	c #C2BEBC",
"G.	c #E2E2E4",
"H.	c #C6C6C4",
"I.	c #E9E8C1",
"J.	c #E9E9C1",
"K.	c #EEEEC7",
"L.	c #595959",
"M.	c #FBFBBD",
"N.	c #020202",
"O.	c #027A84",
"P.	c #02767C",
"Q.	c #92A6AC",
"R.	c #DADADC",
"S.	c #F4F4CA",
"T.	c #F2F2CA",
"U.	c #F4F4CD",
"V.	c #25251C",
"W.	c #02565C",
"X.	c #02626C",
"Y.	c #026A74",
"Z.	c #02727C",
"`.	c #028A9C",
" +	c #6E8A8C",
".+	c #565654",
"++	c #EEEEEC",
"@+	c #CECED4",
"#+	c #FAFAD0",
"$+	c #023A3C",
"%+	c #064E54",
"&+	c #025A64",
"*+	c #025E64",
"=+	c #02666C",
"-+	c #026E74",
";+	c #028694",
">+	c #425E5C",
",+	c #FAFAFC",
"'+	c #022E34",
")+	c #02525C",
"!+	c #829EA4",
"~+	c #C2C2C4",
"{+	c #D2D2CC",
"]+	c #F6F6F4",
"^+	c #FAFAF4",
"/+	c #F3F3B7",
"(+	c #171711",
"_+	c #62828C",
":+	c #D6D6D4",
"<+	c #5A828C",
"[+	c #DEDEDC",
"}+	c #EAEAE4",
"|+	c #1E6674",
"1+	c #C6BEBC",
"2+	c #CACACC",
"3+	c #B6B6B4",
"4+	c #191913",
"5+	c #42868C",
"6+	c #CAC6CC",
"7+	c #1A2E2C",
"8+	c #729694",
"                                                                                                ",
"                                                                                                ",
"                                                                                                ",
"                                                                                                ",
"                                      . . .                                                     ",
"                                  + @ # # # . .                                                 ",
"                            . . . # # # # # $ % . & .                                           ",
"                        . . * * = = # # * - ; * * = = . .                                       ",
"                  . . . > = ; ; , ' = - ; ; = ; ; ) ' = - . . .                                 ",
"              . . ! ~ ~ > = { ] ; ; { * - ^ = { ] ; ; { * - / ( . .                             ",
"        . . . _ _ ! ~ ~ > - : < [ } ; | . ^ - : < [ } ; 1 . / ( ( 2 . . .                       ",
"    . . _ _ _ _ _ ! ~ ~ > 3 - - * 4 5 * . ^ 6 - - * 7 5 * . / ( ( 2 2 8 { . .                   ",
"    . _ _ _ _ _ _ ! ~ ~ * - ; ; . . . . ^ * - ; ; . . . . 9 / * = ; ; 8 { { [ . . .             ",
"    . ; _ _ _ _ _ ! * - ; ; 3 0 0 a b b * * = = c d # # 9 * * = = 2 8 8 { { [ $ $ e . .         ",
"    . 9 ; ; _ _ ! ! ; ; > 3 3 0 0 * - = ; ; , f = - # * = ; ; ) ' = - 8 * - ; ; $ e e e . .     ",
"    . ( 8 { g ; g ! ~ ~ > 3 3 * - ; ; = { } ; ; { * - ; = { } ; ; { * - ; ; [ $ $ e e e e .     ",
"    . 2 { $ e h i ; ; ~ > 3 3 ; ; a b - : j { } ; | . # - : j { } ; 1 . { { [ $ $ e e e ] .     ",
"    . 8 [ e h i k l m g ; g 3 0 a a b b - - * 4 5 * . # 9 - - * 4 n * . { { [ $ $ e ] ] o .     ",
"    . [ e p q k l r s t u v ; ; a a b b ; ; . . . . # * - ; ; . . . . 8 { [ [ ] ] ] w x o .     ",
"    . $ p q i y r s z A v B % C g ; g b ^ 6 6 c d * - ; ; / / ( ( 2 8 8 { ] ] D E F w x o .     ",
"    . e h i y l m z A v G H C I J K L ; ; 6 6 c d ; ; # 9 / / ( 2 2 ] ] ] M N D E F w x o .     ",
"    . . q k l m z t u G H % O J - - - P Q g ; g d d # # 9 / / ( ] ] M M M M N D E F w x o .     ",
"        . . r s t u v B % O I - R S T - U V W X ; ; # 9 9 ] = ] M M M M M M N D E F w x o .     ",
"            . . . v B H C I - R T Y Z - `  .X ..+.@.g ; g - #.= M M M = M M N D E F w x o .     ",
"                  . . C I - R $.%.S &.Z - W *.+.@.=.-.;.= #.#.- M M = #.= M N D E F w x . .     ",
"                      & >.R ,.'.%.).&.!.- *.+.~.- -.;.- #.#.#.#.= M - #.= M N D E F . .         ",
"                      >.{.].^./.'.(._.:.= ..~.<.#.- [.= #.#.}.#.#.= #.#.#.- N . . .             ",
"                    >.|.1.2.3./.S _.:.4.5.6.= =.7.#.= 7.7.#.}.7.#.#.#.#.#.#..                   ",
"              >.>.>.8.9.0.a.b.c.S !.d.e.f.- #.= #.#.g.7.7.#.= 7.#.7.}.#.}.#..                   ",
"            >.h.].].1.0.].i.j.k.Z l.m.f.d.n.#.#.#.7.7.#.}.#.= #.}.#.= #.}.#.#..                 ",
"            >.h.h.o.o.p.q.r.s.t.u.m.v.d.w.x.}.#.}.#.}.#.= #.= #.= #.= #.= #.#.#..               ",
"            >.y.z.A.r.B.C.D.E.F.G.H.I.J.K.x.= #.L.#.= #.= #.= M.= #.= #.= #.= #.#.N.N.          ",
"            >.O.O.O.P.P.D.z.Q.l.c.R.S.T.U.x.#.= #.= #.= #.= #.= #.= #.= #.= #.= #.= #.V.. .     ",
"            >.W.X.X.Y.Z.Z.`. +.+Z ++t.@+#+x.#.}.#.= #.= #.= #.= #.= #.= #.= #.}.#.#.#.#.. .     ",
"            . $+%+&+*+=+-+;+>+'.R.++,+,+d.n.#.#.#.}.#.= #.= #.}.#.= #.= #.}.#.#.#.. .           ",
"              . '+'+)+&+Y.y.!+~+{+G.++]+^+- . 7.7.}.#.}.#.= #.}.#.= #.}.#.7./+(+.               ",
"                    . )+=+X._+v.H.:+G.++s..   . #.#.#.}.#.}.#.}.#.}.#.}.#.#..                   ",
"                      . W.=+<+F.~+@+[+}+.       . . #.#.#.}.#.#.#.}.#.}.#.#..                   ",
"                        . W.|+1+~+2+R.}+.           . #.#.}.#.#.#.}.#./+#..                     ",
"                          . &+3+H.2+:+2+.             . #.#.#.4+#.#.#.#..                       ",
"                            . 5+H.6+R..               . #.#..   . #.#..                         ",
"                              7+8+H.6+.                 . #..   . #.#..                         ",
"                                . . .                     .       . .                           ",
"                                                                    .                           ",
"                                                                    .                           ",
"                                                                                                ",
"                                                                                                ",
"                                                                                                "};
