/* XPM */
static char * mix_volume_xpm[] = {
"20 20 3 1",
" 	c none",
".	c #000000000000",
"X	c #0000FFFF0000",
"                    ",
"                  . ",
"  ..             .. ",
"  .X.           . . ",
"  .XX.         .  . ",
"  .XXX.       .   . ",
"  .XX.       .    . ",
"  .X.       .X    . ",
"  ..       .X.    . ",
"          .X X    . ",
"         .X X.    . ",
"        .X X X    . ",
"       .X X X.    . ",
"      .X X X X    . ",
"     .X X X X.    . ",
"    .X X X X X    . ",
"   .X X X X X.    . ",
"  .X X X X X X    . ",
" .................. ",
"                    "};
