/* XPM */
static char * mix_unknown_xpm[] = {
"20 20 3 1",
" 	c none",
".	c #000000000000",
"X	c #0000FFFF0000",
"                    ",
"  ....            . ",
" ......          .. ",
" ..  ..         . . ",
"     ..        .  . ",
"    ..        .   . ",
"   ..        .    . ",
"   ..       .X    . ",
"           .X.    . ",
"   ..     .X X    . ",
"   ..    .X X.    . ",
"        .X X X    . ",
"       .X X X.    . ",
"      .X X X X    . ",
"     .X X X X.    . ",
"    .X X X X X    . ",
"   .X X X X X.    . ",
"  .X X X X X X    . ",
" .................. ",
"                    "};
