/* XPM */
static char*mix_cd[]={
"20 20 7 1",
"b c #ffa858",
"# c #000000",
"d c #ff8000",
"a c #ffdca8",
"c c #ffffc0",
". c None",
"e c #ffffff",
"....................",
".......#####........",
".....##aabab##......",
"....#caabababd#.....",
"...#eccaababdbd#....",
"..#cceccaabbbdbd#...",
"..#accecababdbdb#...",
".#aacccb###bbbbab#..",
".#abaaa#...#ababa#..",
".#babab#...#babab#..",
".#ababa#...#aaaba#..",
".#babbbb###bccaab#..",
"..#bdbdbabacecca#...",
"..#dbdbbbaaccecc#...",
"...#dbdbabaacce#....",
"....#dbababaac#.....",
".....##babaa##......",
".......#####........",
"....................",
"...................."};
