/* XPM */
static char * mix_audio_xpm[] = {
"20 20 3 1",
" 	c none",
".	c #00000000FFFF",
"X	c #FFFF00000000",
"                    ",
"        .           ",
"        . . . . .   ",
"    . . . . . . .   ",
"    . . . . . . .   ",
"    . . ..... ...   ",
"  . ... ..... ...   ",
"  ........... ... . ",
"  ..................",
"XXXXXXXXXXXXXXXXXXXX",
" .................. ",
"  . ............... ",
"  . ..... ......... ",
"    . ... ..... . . ",
"    . ... ..... .   ",
"    . ... ..... .   ",
"    .  .  . . .     ",
"       .  . .       ",
"       .  . .       ",
"                    "};
