/* XPM */
static char*mix_midi[]={
"20 20 3 1",
"a c #000000",
"# c #0000ff",
". c None",
"....................",
"..............##....",
"............####....",
"aaaaaaa...####.#.aaa",
"........####...#....",
".......###.....#....",
"aaaaaa.##.aaaa.#.aaa",
".......#.......#....",
".......#.......#....",
"aaaaaa.#.aa....#.aaa",
".......#....####....",
".......#...#####....",
"aaaaa..#.a.#####.aaa",
".......#....###.....",
"....####............",
"aa.#####.aaaaaaaaaaa",
"...#####............",
"....###.............",
"....................",
"...................."};
