/* XPM */
static char * mix_bass_xpm[] = {
"20 20 3 1",
" 	c #000000000000",
".	c none",
"o	c #00000000FFFF",
"                    ",
"....................",
"....................",
"    ..oooooo.       ",
"....ooooooooo.......",
"...oooo....ooo......",
"  .ooo.   ..ooo.oo. ",
"...oooo.....ooo.oo..",
"...ooooo....ooo.....",
"  .ooooo.  .ooo.    ",
"....ooo.....ooo.....",
"............ooo.oo..",
"           .oo..oo. ",
"...........oo.......",
".........ooo........",
"      .ooo..        ",
"....................",
"....................",
"                    ",
"...................."};
