/* XPM */
static char * midi_xpm[] = {
"20 20 3 1",
" 	c none",
".	c #000000000000",
"X	c #00000000FFFF",
"                    ",
"....................",
"              XX    ",
"            XX X    ",
"          XX   X    ",
"....... XX  .. X ...",
"       X       X    ",
"       X       X    ",
"       X       X    ",
"...... X .. XXXX ...",
"       X   XXXXX    ",
"       X   XXXXX    ",
"       X   XXXXX    ",
"... XXXX .. XXX ....",
"   XXXXX            ",
"   XXXXX            ",
"   XXXXX            ",
"... XXX ............",
"                    ",
"                    "};
