/* XPM */
static char*mix_bass[]={
"20 20 3 1",
"# c #000000",
"a c #0000ff",
". c None",
"....................",
"....................",
"....................",
"#####...aaa...######",
"......aaaaaaa.......",
".....aa....aa.......",
"###.aa.###..aa..aa.#",
"....aaa.....aa..aa..",
"....aaaa....aa......",
"###.aaaa.##.aa.#####",
".....aa....aa.......",
"...........aa...aa..",
"##########aa....aa.#",
".........aa.........",
"........aa..........",
"######.aa..#########",
".......a............",
"....................",
"....................",
"...................."};
