/* XPM */
static char * mix_microphone_xpm[] = {
"20 20 17 1",
" 	c none",
".	c #000000000000",
"X	c #B5ACB5ACB5AC",
"o	c #8C628C628C62",
"O	c #D6B4D6B4D6B4",
"+	c #9CE69CE69CE6",
"@	c #6B5A6B5A6B5A",
"#	c #EF7AEF7AEF7A",
"$	c #C630C630C630",
"%	c #739C739C739C",
"&	c #4A524A524A52",
"*	c #DEF6DEF6DEF6",
"=	c #421042104210",
"-	c #210821082108",
";	c #AD6AAD6AAD6A",
":	c #842084208420",
">	c #631863186318",
"                    ",
"            ....    ",
"           . X o.   ",
"          ..O + @.  ",
"         . #.$ % &. ",
"         .* #.+ = . ",
"         . $ $.- -. ",
"         .. ; &.... ",
"         ..+ % -..  ",
"        . ..:>&..   ",
"       . .......    ",
"      . ...         ",
"     . ...          ",
"    . ...           ",
"   . ...            ",
"   ....             ",
"  ....              ",
"  ..                ",
" .                  ",
".                   "};
