/* XPM */
static char*mix_audio[]={
"20 20 3 1",
"a c #000000",
". c None",
"# c #0000ff",
"....................",
"........#...........",
"........#.#.#.#.....",
"....#.#.#.#.#.#.....",
"....#.#.#.#.#.#.#...",
"....#.#.#####.#.#...",
"..#.###.#####.###...",
"..###########.####..",
"..#################.",
"aaaaaaaaaaaaaaaaaaaa",
".##################.",
"..#.#############.#.",
"..#.#####.#######...",
"....#.###.#####.#...",
"....#.###.#####.#...",
"....#.###.#####.....",
"....#..#..#.#.#.....",
".......#..#.#.......",
".......#..#.#.......",
"...................."};
