/* XPM */
static char * mix_rec_xpm[] = {
"20 20 4 1",
" 	c none",
".	c #CE72CE72CE72",
"X	c #000000000000",
"o	c #FFFF00000000",
"                    ",
" ... ...          X ",
" .oo .oo         XX ",
" .oX .oX        X X ",
" .oo .oo       X  X ",
" .oX .oX      X   X ",
" .oo .oo     X    X ",
" .oX .oX    X     X ",
" .XX .XX   X.     X ",
"          X.o     X ",
"         X.o.     X ",
"        X.o.o     X ",
"       X.o.o.     X ",
"      X.o.o.o     X ",
"     X.o.o.o.     X ",
"    X.o.o.o.o     X ",
"   X.o.o.o.o.     X ",
"  X.o.o.o.o.o     X ",
" XXXXXXXXXXXXXXXXXX ",
"                    "};
