/* XPM */
static char * mix_treble_xpm[] = {
"20 20 3 1",
" 	c #000000000000",
".	c none",
"X	c #00000000FFFF",
"         .XX..      ",
".........X..X.......",
".........X..X.......",
"        .X..X.      ",
".........X.X........",
".........XX.........",
"        .X.         ",
"........XX..........",
".......X.X..........",
"     .X..XXX.       ",
".....X..XX..X.......",
".....X.X.X...X......",
"     X.X.X. .X.     ",
".....X...X...X......",
"......X..X..X.......",
"     ..XXXXX.       ",
".........X..........",
".........X..........",
"      .XX..         ",
"...................."};
