/* XPM */
static char*mix_treble[]={
"20 20 3 1",
"a c #000000",
"# c #0000ff",
". c None",
"..........##........",
".........#.##.......",
".........#.##.......",
"aaaaaaaa.#.##.aaaaaa",
".........#.#........",
".........###........",
"aaaaaaaa.#...aaaaaaa",
"........##..........",
"......##.#..........",
"aaa..##..###.aaaaaaa",
"....##..##.##.......",
"....##.#.#..##......",
"aaa.##.#.#.a.#.aaaaa",
"....##...#..##......",
".....##..#.##.......",
"aaaa..######.aaaaaaa",
".........#..........",
"......##.#..........",
"......##.#..........",
".......##..........."};
