/* XPM */
static char * mix_cd_xpm[] = {
"20 20 5 1",
" 	c none",
".	c #000000000000",
"X	c #FFFFFFFFCE72",
"o	c #FFFF00000000",
"O	c #0000FFFF0000",
"                    ",
"       .....        ",
"     ..XXXoX..      ",
"    .XXXXXXXXX.     ",
"   .XoXXXXoXXXX.    ",
"  .XOXXXXXXXOXXX.   ",
"  .XXOXoXXXXXOXX.   ",
" .XXOXXX...XXXOXX.  ",
" .XOXOX.   .XXXXX.  ",
" .oXOXO.   .XXOXX.  ",
" .XXXXX.   .XXXXX.  ",
" .XXOXXX...XoXOXX.  ",
"  .XXOXXXXXoXOXX.   ",
"  .XXXOXXXXXOXOX.   ",
"   .XXXOXOXOXOX.    ",
"    .XXXXXXXXX.     ",
"     ..XXXXX..      ",
"       .....        ",
"                    ",
"                    "};
